# Blender v2.78 (sub 0) OBJ File: ''
# www.blender.org
mtllib LampShade.mtl
o Sphere
v 0.180240 -0.382683 -0.906127
v 0.162212 -0.555570 -0.815493
v 0.137950 -0.707107 -0.693520
v 0.108386 -0.831470 -0.544895
v 0.074658 -0.923880 -0.375330
v 0.038060 -0.980785 -0.191341
v 0.353554 -0.382683 -0.853553
v 0.318190 -0.555570 -0.768178
v 0.270598 -0.707107 -0.653281
v 0.212608 -0.831470 -0.513280
v 0.146447 -0.923880 -0.353553
v 0.074658 -0.980785 -0.180240
v 0.513280 -0.382683 -0.768178
v 0.461940 -0.555570 -0.691342
v 0.392848 -0.707107 -0.587938
v 0.308658 -0.831470 -0.461940
v 0.212608 -0.923880 -0.318189
v 0.108386 -0.980785 -0.162211
v 0.653282 -0.382683 -0.653281
v 0.587938 -0.555570 -0.587938
v 0.500000 -0.707107 -0.500000
v 0.392848 -0.831470 -0.392847
v 0.270598 -0.923880 -0.270598
v 0.137950 -0.980785 -0.137949
v 0.768178 -0.382683 -0.513280
v 0.691342 -0.555570 -0.461940
v 0.587938 -0.707107 -0.392847
v 0.461940 -0.831470 -0.308658
v 0.318190 -0.923880 -0.212607
v 0.162212 -0.980785 -0.108386
v 0.000000 -1.000000 0.000000
v 0.853554 -0.382683 -0.353553
v 0.768178 -0.555570 -0.318189
v 0.653282 -0.707107 -0.270598
v 0.513280 -0.831470 -0.212607
v 0.353554 -0.923880 -0.146446
v 0.180240 -0.980785 -0.074658
v 0.906128 -0.382683 -0.180240
v 0.815493 -0.555570 -0.162211
v 0.693520 -0.707107 -0.137949
v 0.544895 -0.831470 -0.108386
v 0.375330 -0.923880 -0.074658
v 0.191342 -0.980785 -0.038060
v 0.923880 -0.382683 0.000000
v 0.831470 -0.555570 0.000000
v 0.707107 -0.707107 0.000000
v 0.555570 -0.831470 0.000000
v 0.382684 -0.923880 0.000000
v 0.195090 -0.980785 0.000000
v 0.906128 -0.382683 0.180240
v 0.815493 -0.555570 0.162212
v 0.693520 -0.707107 0.137950
v 0.544895 -0.831470 0.108387
v 0.375330 -0.923880 0.074658
v 0.191342 -0.980785 0.038061
v 0.853554 -0.382683 0.353554
v 0.768178 -0.555570 0.318190
v 0.653282 -0.707107 0.270598
v 0.513280 -0.831470 0.212608
v 0.353553 -0.923880 0.146447
v 0.180240 -0.980785 0.074658
v 0.768178 -0.382683 0.513280
v 0.691342 -0.555570 0.461940
v 0.587938 -0.707107 0.392848
v 0.461940 -0.831470 0.308659
v 0.318190 -0.923880 0.212608
v 0.162212 -0.980785 0.108387
v 0.653282 -0.382683 0.653282
v 0.587938 -0.555570 0.587938
v 0.500000 -0.707107 0.500000
v 0.392848 -0.831470 0.392848
v 0.270598 -0.923880 0.270598
v 0.137950 -0.980785 0.137950
v 0.513280 -0.382683 0.768178
v 0.461940 -0.555570 0.691342
v 0.392848 -0.707107 0.587938
v 0.308658 -0.831470 0.461940
v 0.212608 -0.923880 0.318190
v 0.108386 -0.980785 0.162212
v 0.353553 -0.382683 0.853554
v 0.318190 -0.555570 0.768178
v 0.270598 -0.707107 0.653282
v 0.212608 -0.831470 0.513280
v 0.146447 -0.923880 0.353554
v 0.074658 -0.980785 0.180240
v 0.180240 -0.382683 0.906128
v 0.162212 -0.555570 0.815493
v 0.137950 -0.707107 0.693520
v 0.108386 -0.831470 0.544895
v 0.074658 -0.923880 0.375331
v 0.038060 -0.980785 0.191342
v 0.000000 -0.382683 0.923880
v -0.000000 -0.555570 0.831470
v -0.000000 -0.707107 0.707107
v -0.000000 -0.831470 0.555570
v 0.000000 -0.923880 0.382684
v 0.000000 -0.980785 0.195091
v -0.180240 -0.382683 0.906128
v -0.162212 -0.555570 0.815493
v -0.137950 -0.707107 0.693520
v -0.108386 -0.831470 0.544895
v -0.074658 -0.923880 0.375331
v -0.038060 -0.980785 0.191342
v -0.353553 -0.382683 0.853554
v -0.318190 -0.555570 0.768178
v -0.270598 -0.707107 0.653282
v -0.212608 -0.831470 0.513280
v -0.146447 -0.923880 0.353554
v -0.074658 -0.980785 0.180240
v -0.513280 -0.382683 0.768178
v -0.461940 -0.555570 0.691342
v -0.392847 -0.707107 0.587938
v -0.308658 -0.831470 0.461940
v -0.212607 -0.923880 0.318190
v -0.108386 -0.980785 0.162212
v -0.653281 -0.382683 0.653282
v -0.587938 -0.555570 0.587938
v -0.500000 -0.707107 0.500000
v -0.392847 -0.831470 0.392848
v -0.270598 -0.923880 0.270598
v -0.137950 -0.980785 0.137950
v -0.768178 -0.382683 0.513280
v -0.691342 -0.555570 0.461940
v -0.587938 -0.707107 0.392848
v -0.461940 -0.831470 0.308658
v -0.318190 -0.923880 0.212608
v -0.162212 -0.980785 0.108387
v -0.853553 -0.382683 0.353554
v -0.768177 -0.555570 0.318190
v -0.653281 -0.707107 0.270598
v -0.513280 -0.831470 0.212608
v -0.353553 -0.923880 0.146447
v -0.180240 -0.980785 0.074658
v -0.906127 -0.382683 0.180240
v -0.815493 -0.555570 0.162212
v -0.693520 -0.707107 0.137950
v -0.544895 -0.831470 0.108387
v -0.375330 -0.923880 0.074658
v -0.191342 -0.980785 0.038061
v -0.923879 -0.382683 0.000000
v -0.831469 -0.555570 0.000000
v -0.707107 -0.707107 0.000000
v -0.555570 -0.831470 0.000000
v -0.382683 -0.923880 0.000000
v -0.195090 -0.980785 0.000000
v -0.906127 -0.382683 -0.180240
v -0.815493 -0.555570 -0.162211
v -0.693520 -0.707107 -0.137949
v -0.544895 -0.831470 -0.108386
v -0.375330 -0.923880 -0.074658
v -0.191342 -0.980785 -0.038060
v -0.853553 -0.382683 -0.353553
v -0.768177 -0.555570 -0.318189
v -0.653281 -0.707107 -0.270598
v -0.513280 -0.831470 -0.212607
v -0.353553 -0.923880 -0.146446
v -0.180240 -0.980785 -0.074657
v -0.768178 -0.382683 -0.513280
v -0.691341 -0.555570 -0.461939
v -0.587938 -0.707107 -0.392847
v -0.461940 -0.831470 -0.308658
v -0.318189 -0.923880 -0.212607
v -0.162212 -0.980785 -0.108386
v -0.653281 -0.382683 -0.653281
v -0.587937 -0.555570 -0.587937
v -0.500000 -0.707107 -0.500000
v -0.392847 -0.831470 -0.392847
v -0.270598 -0.923880 -0.270598
v -0.137950 -0.980785 -0.137949
v -0.513280 -0.382683 -0.768177
v -0.461939 -0.555570 -0.691341
v -0.392847 -0.707107 -0.587937
v -0.308658 -0.831470 -0.461939
v -0.212607 -0.923880 -0.318189
v -0.108386 -0.980785 -0.162211
v -0.353553 -0.382683 -0.853553
v -0.318189 -0.555570 -0.768177
v -0.270598 -0.707107 -0.653281
v -0.212607 -0.831470 -0.513279
v -0.146446 -0.923880 -0.353553
v -0.074658 -0.980785 -0.180240
v -0.180240 -0.382683 -0.906127
v -0.162211 -0.555570 -0.815492
v -0.137950 -0.707107 -0.693520
v -0.108386 -0.831470 -0.544895
v -0.074658 -0.923880 -0.375330
v -0.038060 -0.980785 -0.191341
v 0.000000 -0.382683 -0.923879
v 0.000000 -0.555570 -0.831469
v 0.000000 -0.707107 -0.707106
v 0.000000 -0.831470 -0.555570
v 0.000000 -0.923880 -0.382683
v 0.000000 -0.980785 -0.195090
vn 0.0000 -0.8286 -0.5598
vn 0.0000 -0.7040 -0.7101
vn 0.1385 -0.7040 -0.6965
vn 0.1092 -0.8286 -0.5490
vn 0.0000 -0.9217 -0.3879
vn 0.0757 -0.9217 -0.3804
vn 0.0000 -0.9796 -0.2010
vn 0.0392 -0.9796 -0.1971
vn 0.0000 -1.0000 0.0000
vn 0.0000 -0.5528 -0.8333
vn 0.0000 -0.4714 -0.8819
vn 0.1720 -0.4714 -0.8650
vn 0.1626 -0.5528 -0.8173
vn 0.3189 -0.5528 -0.7699
vn 0.2717 -0.7040 -0.6561
vn 0.2142 -0.8286 -0.5171
vn 0.1484 -0.9217 -0.3583
vn 0.0769 -0.9796 -0.1856
vn 0.3375 -0.4714 -0.8148
vn 0.1116 -0.9796 -0.1671
vn 0.4899 -0.4714 -0.7333
vn 0.4630 -0.5528 -0.6929
vn 0.3945 -0.7040 -0.5904
vn 0.3110 -0.8286 -0.4654
vn 0.2155 -0.9217 -0.3225
vn 0.5021 -0.7040 -0.5021
vn 0.3958 -0.8286 -0.3958
vn 0.2743 -0.9217 -0.2743
vn 0.1421 -0.9796 -0.1421
vn 0.6236 -0.4714 -0.6236
vn 0.5893 -0.5528 -0.5893
vn 0.7333 -0.4714 -0.4899
vn 0.6929 -0.5528 -0.4630
vn 0.5904 -0.7040 -0.3945
vn 0.4654 -0.8286 -0.3110
vn 0.3225 -0.9217 -0.2155
vn 0.1671 -0.9796 -0.1116
vn 0.6561 -0.7040 -0.2717
vn 0.5171 -0.8286 -0.2142
vn 0.3583 -0.9217 -0.1484
vn 0.1856 -0.9796 -0.0769
vn 0.8148 -0.4714 -0.3375
vn 0.7699 -0.5528 -0.3189
vn 0.8650 -0.4714 -0.1720
vn 0.8173 -0.5528 -0.1626
vn 0.6965 -0.7040 -0.1385
vn 0.5490 -0.8286 -0.1092
vn 0.3804 -0.9217 -0.0757
vn 0.1971 -0.9796 -0.0392
vn 0.5598 -0.8286 0.0000
vn 0.3879 -0.9217 0.0000
vn 0.2010 -0.9796 0.0000
vn 0.8819 -0.4714 0.0000
vn 0.8333 -0.5528 0.0000
vn 0.7101 -0.7040 0.0000
vn 0.8650 -0.4714 0.1720
vn 0.8173 -0.5528 0.1626
vn 0.6965 -0.7040 0.1385
vn 0.5490 -0.8286 0.1092
vn 0.3804 -0.9217 0.0757
vn 0.1971 -0.9796 0.0392
vn 0.5171 -0.8286 0.2142
vn 0.3583 -0.9217 0.1484
vn 0.1856 -0.9796 0.0769
vn 0.8148 -0.4714 0.3375
vn 0.7699 -0.5528 0.3189
vn 0.6561 -0.7040 0.2717
vn 0.7333 -0.4714 0.4899
vn 0.6929 -0.5528 0.4630
vn 0.5904 -0.7040 0.3945
vn 0.4654 -0.8286 0.3110
vn 0.3225 -0.9217 0.2155
vn 0.1671 -0.9796 0.1116
vn 0.2743 -0.9217 0.2743
vn 0.1421 -0.9796 0.1421
vn 0.6236 -0.4714 0.6236
vn 0.5893 -0.5528 0.5893
vn 0.5021 -0.7040 0.5021
vn 0.3958 -0.8286 0.3958
vn 0.4630 -0.5528 0.6929
vn 0.3945 -0.7040 0.5904
vn 0.3110 -0.8286 0.4654
vn 0.2155 -0.9217 0.3225
vn 0.1116 -0.9796 0.1671
vn 0.4899 -0.4714 0.7333
vn 0.0769 -0.9796 0.1856
vn 0.3375 -0.4714 0.8148
vn 0.3189 -0.5528 0.7699
vn 0.2717 -0.7040 0.6561
vn 0.2142 -0.8286 0.5171
vn 0.1484 -0.9217 0.3583
vn 0.1626 -0.5528 0.8173
vn 0.1385 -0.7040 0.6965
vn 0.1092 -0.8286 0.5490
vn 0.0757 -0.9217 0.3804
vn 0.0392 -0.9796 0.1971
vn 0.1720 -0.4714 0.8650
vn 0.0000 -0.9796 0.2010
vn 0.0000 -0.4714 0.8819
vn 0.0000 -0.5528 0.8333
vn 0.0000 -0.7040 0.7101
vn 0.0000 -0.8286 0.5598
vn 0.0000 -0.9217 0.3879
vn -0.1385 -0.7040 0.6965
vn -0.1092 -0.8286 0.5490
vn -0.0757 -0.9217 0.3804
vn -0.0392 -0.9796 0.1971
vn -0.1720 -0.4714 0.8650
vn -0.1626 -0.5528 0.8173
vn -0.3375 -0.4714 0.8148
vn -0.3189 -0.5528 0.7699
vn -0.2717 -0.7040 0.6561
vn -0.2142 -0.8286 0.5171
vn -0.1484 -0.9217 0.3583
vn -0.0769 -0.9796 0.1856
vn -0.3945 -0.7040 0.5904
vn -0.3110 -0.8286 0.4654
vn -0.2155 -0.9217 0.3225
vn -0.1116 -0.9796 0.1671
vn -0.4899 -0.4714 0.7333
vn -0.4630 -0.5528 0.6929
vn -0.6236 -0.4714 0.6236
vn -0.5893 -0.5528 0.5893
vn -0.5021 -0.7040 0.5021
vn -0.3958 -0.8286 0.3958
vn -0.2743 -0.9217 0.2743
vn -0.1421 -0.9796 0.1421
vn -0.4654 -0.8286 0.3110
vn -0.3225 -0.9217 0.2155
vn -0.1671 -0.9796 0.1116
vn -0.7333 -0.4714 0.4899
vn -0.6929 -0.5528 0.4630
vn -0.5904 -0.7040 0.3945
vn -0.8148 -0.4714 0.3375
vn -0.7699 -0.5528 0.3189
vn -0.6561 -0.7040 0.2717
vn -0.5171 -0.8286 0.2142
vn -0.3583 -0.9217 0.1484
vn -0.1856 -0.9796 0.0769
vn -0.3804 -0.9217 0.0757
vn -0.1971 -0.9796 0.0392
vn -0.8650 -0.4714 0.1720
vn -0.8173 -0.5528 0.1626
vn -0.6965 -0.7040 0.1385
vn -0.5490 -0.8286 0.1092
vn -0.8819 -0.4714 0.0000
vn -0.8333 -0.5528 0.0000
vn -0.7101 -0.7040 0.0000
vn -0.5598 -0.8286 0.0000
vn -0.3879 -0.9217 0.0000
vn -0.2010 -0.9796 0.0000
vn -0.3804 -0.9217 -0.0757
vn -0.1971 -0.9796 -0.0392
vn -0.8650 -0.4714 -0.1720
vn -0.8173 -0.5528 -0.1626
vn -0.6965 -0.7040 -0.1385
vn -0.5490 -0.8286 -0.1092
vn -0.7699 -0.5528 -0.3189
vn -0.6561 -0.7040 -0.2717
vn -0.5171 -0.8286 -0.2142
vn -0.3583 -0.9217 -0.1484
vn -0.1856 -0.9796 -0.0769
vn -0.8148 -0.4714 -0.3375
vn -0.1671 -0.9796 -0.1116
vn -0.7333 -0.4714 -0.4899
vn -0.6929 -0.5528 -0.4630
vn -0.5904 -0.7040 -0.3945
vn -0.4654 -0.8286 -0.3110
vn -0.3225 -0.9217 -0.2155
vn -0.5893 -0.5528 -0.5893
vn -0.5021 -0.7040 -0.5021
vn -0.3958 -0.8286 -0.3958
vn -0.2743 -0.9217 -0.2743
vn -0.1421 -0.9796 -0.1421
vn -0.6236 -0.4714 -0.6236
vn -0.1116 -0.9796 -0.1671
vn -0.4899 -0.4714 -0.7333
vn -0.4630 -0.5528 -0.6929
vn -0.3945 -0.7040 -0.5904
vn -0.3110 -0.8286 -0.4654
vn -0.2155 -0.9217 -0.3225
vn -0.2717 -0.7040 -0.6561
vn -0.2142 -0.8286 -0.5171
vn -0.1484 -0.9217 -0.3583
vn -0.0769 -0.9796 -0.1856
vn -0.3375 -0.4714 -0.8148
vn -0.3189 -0.5528 -0.7699
vn -0.1720 -0.4714 -0.8650
vn -0.1626 -0.5528 -0.8173
vn -0.1385 -0.7040 -0.6965
vn -0.1092 -0.8286 -0.5490
vn -0.0757 -0.9217 -0.3804
vn -0.0392 -0.9796 -0.1971
usemtl None
s 1
f 191//1 190//2 3//3 4//4
f 192//5 191//1 4//4 5//6
f 193//7 192//5 5//6 6//8
f 31//9 193//7 6//8
f 189//10 188//11 1//12 2//13
f 190//2 189//10 2//13 3//3
f 3//3 2//13 8//14 9//15
f 4//4 3//3 9//15 10//16
f 5//6 4//4 10//16 11//17
f 6//8 5//6 11//17 12//18
f 31//9 6//8 12//18
f 2//13 1//12 7//19 8//14
f 31//9 12//18 18//20
f 8//14 7//19 13//21 14//22
f 9//15 8//14 14//22 15//23
f 10//16 9//15 15//23 16//24
f 11//17 10//16 16//24 17//25
f 12//18 11//17 17//25 18//20
f 16//24 15//23 21//26 22//27
f 17//25 16//24 22//27 23//28
f 18//20 17//25 23//28 24//29
f 31//9 18//20 24//29
f 14//22 13//21 19//30 20//31
f 15//23 14//22 20//31 21//26
f 20//31 19//30 25//32 26//33
f 21//26 20//31 26//33 27//34
f 22//27 21//26 27//34 28//35
f 23//28 22//27 28//35 29//36
f 24//29 23//28 29//36 30//37
f 31//9 24//29 30//37
f 28//35 27//34 34//38 35//39
f 29//36 28//35 35//39 36//40
f 30//37 29//36 36//40 37//41
f 31//9 30//37 37//41
f 26//33 25//32 32//42 33//43
f 27//34 26//33 33//43 34//38
f 33//43 32//42 38//44 39//45
f 34//38 33//43 39//45 40//46
f 35//39 34//38 40//46 41//47
f 36//40 35//39 41//47 42//48
f 37//41 36//40 42//48 43//49
f 31//9 37//41 43//49
f 42//48 41//47 47//50 48//51
f 43//49 42//48 48//51 49//52
f 31//9 43//49 49//52
f 39//45 38//44 44//53 45//54
f 40//46 39//45 45//54 46//55
f 41//47 40//46 46//55 47//50
f 45//54 44//53 50//56 51//57
f 46//55 45//54 51//57 52//58
f 47//50 46//55 52//58 53//59
f 48//51 47//50 53//59 54//60
f 49//52 48//51 54//60 55//61
f 31//9 49//52 55//61
f 54//60 53//59 59//62 60//63
f 55//61 54//60 60//63 61//64
f 31//9 55//61 61//64
f 51//57 50//56 56//65 57//66
f 52//58 51//57 57//66 58//67
f 53//59 52//58 58//67 59//62
f 57//66 56//65 62//68 63//69
f 58//67 57//66 63//69 64//70
f 59//62 58//67 64//70 65//71
f 60//63 59//62 65//71 66//72
f 61//64 60//63 66//72 67//73
f 31//9 61//64 67//73
f 67//73 66//72 72//74 73//75
f 31//9 67//73 73//75
f 63//69 62//68 68//76 69//77
f 64//70 63//69 69//77 70//78
f 65//71 64//70 70//78 71//79
f 66//72 65//71 71//79 72//74
f 70//78 69//77 75//80 76//81
f 71//79 70//78 76//81 77//82
f 72//74 71//79 77//82 78//83
f 73//75 72//74 78//83 79//84
f 31//9 73//75 79//84
f 69//77 68//76 74//85 75//80
f 31//9 79//84 85//86
f 75//80 74//85 80//87 81//88
f 76//81 75//80 81//88 82//89
f 77//82 76//81 82//89 83//90
f 78//83 77//82 83//90 84//91
f 79//84 78//83 84//91 85//86
f 82//89 81//88 87//92 88//93
f 83//90 82//89 88//93 89//94
f 84//91 83//90 89//94 90//95
f 85//86 84//91 90//95 91//96
f 31//9 85//86 91//96
f 81//88 80//87 86//97 87//92
f 31//9 91//96 97//98
f 87//92 86//97 92//99 93//100
f 88//93 87//92 93//100 94//101
f 89//94 88//93 94//101 95//102
f 90//95 89//94 95//102 96//103
f 91//96 90//95 96//103 97//98
f 95//102 94//101 100//104 101//105
f 96//103 95//102 101//105 102//106
f 97//98 96//103 102//106 103//107
f 31//9 97//98 103//107
f 93//100 92//99 98//108 99//109
f 94//101 93//100 99//109 100//104
f 99//109 98//108 104//110 105//111
f 100//104 99//109 105//111 106//112
f 101//105 100//104 106//112 107//113
f 102//106 101//105 107//113 108//114
f 103//107 102//106 108//114 109//115
f 31//9 103//107 109//115
f 107//113 106//112 112//116 113//117
f 108//114 107//113 113//117 114//118
f 109//115 108//114 114//118 115//119
f 31//9 109//115 115//119
f 105//111 104//110 110//120 111//121
f 106//112 105//111 111//121 112//116
f 111//121 110//120 116//122 117//123
f 112//116 111//121 117//123 118//124
f 113//117 112//116 118//124 119//125
f 114//118 113//117 119//125 120//126
f 115//119 114//118 120//126 121//127
f 31//9 115//119 121//127
f 120//126 119//125 125//128 126//129
f 121//127 120//126 126//129 127//130
f 31//9 121//127 127//130
f 117//123 116//122 122//131 123//132
f 118//124 117//123 123//132 124//133
f 119//125 118//124 124//133 125//128
f 123//132 122//131 128//134 129//135
f 124//133 123//132 129//135 130//136
f 125//128 124//133 130//136 131//137
f 126//129 125//128 131//137 132//138
f 127//130 126//129 132//138 133//139
f 31//9 127//130 133//139
f 133//139 132//138 138//140 139//141
f 31//9 133//139 139//141
f 129//135 128//134 134//142 135//143
f 130//136 129//135 135//143 136//144
f 131//137 130//136 136//144 137//145
f 132//138 131//137 137//145 138//140
f 135//143 134//142 140//146 141//147
f 136//144 135//143 141//147 142//148
f 137//145 136//144 142//148 143//149
f 138//140 137//145 143//149 144//150
f 139//141 138//140 144//150 145//151
f 31//9 139//141 145//151
f 145//151 144//150 150//152 151//153
f 31//9 145//151 151//153
f 141//147 140//146 146//154 147//155
f 142//148 141//147 147//155 148//156
f 143//149 142//148 148//156 149//157
f 144//150 143//149 149//157 150//152
f 148//156 147//155 153//158 154//159
f 149//157 148//156 154//159 155//160
f 150//152 149//157 155//160 156//161
f 151//153 150//152 156//161 157//162
f 31//9 151//153 157//162
f 147//155 146//154 152//163 153//158
f 31//9 157//162 163//164
f 153//158 152//163 158//165 159//166
f 154//159 153//158 159//166 160//167
f 155//160 154//159 160//167 161//168
f 156//161 155//160 161//168 162//169
f 157//162 156//161 162//169 163//164
f 160//167 159//166 165//170 166//171
f 161//168 160//167 166//171 167//172
f 162//169 161//168 167//172 168//173
f 163//164 162//169 168//173 169//174
f 31//9 163//164 169//174
f 159//166 158//165 164//175 165//170
f 31//9 169//174 175//176
f 165//170 164//175 170//177 171//178
f 166//171 165//170 171//178 172//179
f 167//172 166//171 172//179 173//180
f 168//173 167//172 173//180 174//181
f 169//174 168//173 174//181 175//176
f 173//180 172//179 178//182 179//183
f 174//181 173//180 179//183 180//184
f 175//176 174//181 180//184 181//185
f 31//9 175//176 181//185
f 171//178 170//177 176//186 177//187
f 172//179 171//178 177//187 178//182
f 177//187 176//186 182//188 183//189
f 178//182 177//187 183//189 184//190
f 179//183 178//182 184//190 185//191
f 180//184 179//183 185//191 186//192
f 181//185 180//184 186//192 187//193
f 31//9 181//185 187//193
f 186//192 185//191 191//1 192//5
f 187//193 186//192 192//5 193//7
f 31//9 187//193 193//7
f 183//189 182//188 188//11 189//10
f 184//190 183//189 189//10 190//2
f 185//191 184//190 190//2 191//1
